<svg width="101" height="33" viewBox="0 0 101 33" fill="none" xmlns="http://www.w3.org/2000/svg">
<rect width="101" height="33" rx="10" fill="#FF256F"/>
<path d="M28.8207 11.5455V21H26.8217V11.5455H28.8207ZM32.395 16.9006V21H30.4284V13.9091H32.3026V15.1602H32.3857C32.5427 14.7478 32.8058 14.4215 33.1752 14.1815C33.5445 13.9383 33.9923 13.8168 34.5186 13.8168C35.011 13.8168 35.4403 13.9245 35.8066 14.1399C36.1728 14.3554 36.4575 14.6631 36.6606 15.0632C36.8637 15.4602 36.9653 15.9342 36.9653 16.4851V21H34.9987V16.8359C35.0017 16.402 34.891 16.0634 34.6663 15.8203C34.4416 15.5741 34.1323 15.451 33.7384 15.451C33.4737 15.451 33.2398 15.5079 33.0367 15.6218C32.8366 15.7357 32.6797 15.9019 32.5658 16.1204C32.455 16.3358 32.3981 16.5959 32.395 16.9006ZM44.4151 15.9311L42.6147 16.0419C42.5839 15.888 42.5178 15.7495 42.4162 15.6264C42.3146 15.5002 42.1808 15.4002 42.0146 15.3263C41.8514 15.2494 41.656 15.2109 41.4283 15.2109C41.1236 15.2109 40.8666 15.2756 40.6573 15.4048C40.448 15.531 40.3434 15.7003 40.3434 15.9126C40.3434 16.0819 40.4111 16.225 40.5465 16.342C40.6819 16.4589 40.9143 16.5528 41.2436 16.6236L42.527 16.8821C43.2164 17.0237 43.7304 17.2514 44.0689 17.5653C44.4074 17.8793 44.5767 18.2917 44.5767 18.8026C44.5767 19.2673 44.4397 19.6751 44.1658 20.0259C43.895 20.3768 43.5226 20.6507 43.0487 20.8477C42.5778 21.0415 42.0346 21.1385 41.419 21.1385C40.4804 21.1385 39.7325 20.9431 39.1754 20.5522C38.6214 20.1583 38.2968 19.6228 38.2013 18.9457L40.1357 18.8441C40.1941 19.1303 40.3357 19.3488 40.5604 19.4996C40.785 19.6474 41.0728 19.7212 41.4237 19.7212C41.7683 19.7212 42.0453 19.6551 42.2546 19.5227C42.467 19.3873 42.5747 19.2134 42.5778 19.0011C42.5747 18.8226 42.4993 18.6764 42.3516 18.5625C42.2038 18.4455 41.9761 18.3563 41.6683 18.2947L40.4403 18.0501C39.7479 17.9116 39.2324 17.6715 38.8938 17.3299C38.5584 16.9883 38.3906 16.5528 38.3906 16.0234C38.3906 15.5679 38.5137 15.1755 38.7599 14.8462C39.0092 14.5169 39.3585 14.263 39.8079 14.0845C40.2603 13.906 40.7897 13.8168 41.396 13.8168C42.2915 13.8168 42.9963 14.006 43.5103 14.3846C44.0273 14.7631 44.329 15.2786 44.4151 15.9311ZM49.5867 13.9091V15.3864H45.3165V13.9091H49.5867ZM46.286 12.2102H48.2526V18.821C48.2526 19.0026 48.2803 19.1442 48.3357 19.2457C48.3911 19.3442 48.468 19.4135 48.5665 19.4535C48.6681 19.4935 48.785 19.5135 48.9173 19.5135C49.0097 19.5135 49.102 19.5058 49.1943 19.4904C49.2867 19.4719 49.3575 19.4581 49.4067 19.4489L49.716 20.9123C49.6175 20.9431 49.479 20.9785 49.3005 21.0185C49.122 21.0616 48.905 21.0877 48.6496 21.0969C48.1756 21.1154 47.7602 21.0523 47.4031 20.9077C47.0492 20.763 46.7738 20.5384 46.5768 20.2337C46.3798 19.929 46.2829 19.5443 46.286 19.0795V12.2102ZM52.8898 21.1339C52.4374 21.1339 52.0342 21.0554 51.6803 20.8984C51.3264 20.7384 51.0463 20.503 50.8401 20.1921C50.637 19.8782 50.5354 19.4873 50.5354 19.0195C50.5354 18.6256 50.6077 18.2947 50.7524 18.027C50.897 17.7592 51.094 17.5438 51.3433 17.3807C51.5926 17.2176 51.8757 17.0945 52.1927 17.0114C52.5128 16.9283 52.8483 16.8698 53.1991 16.8359C53.6115 16.7929 53.9439 16.7528 54.1963 16.7159C54.4487 16.6759 54.6318 16.6174 54.7456 16.5405C54.8595 16.4635 54.9165 16.3497 54.9165 16.1989V16.1712C54.9165 15.8788 54.8241 15.6526 54.6395 15.4925C54.4579 15.3325 54.1994 15.2525 53.8639 15.2525C53.51 15.2525 53.2284 15.331 53.0191 15.4879C52.8098 15.6418 52.6713 15.8357 52.6036 16.0696L50.7847 15.9219C50.877 15.491 51.0586 15.1186 51.3295 14.8047C51.6003 14.4877 51.9496 14.2446 52.3774 14.0753C52.8083 13.9029 53.3068 13.8168 53.8731 13.8168C54.2671 13.8168 54.6441 13.8629 55.0042 13.9553C55.3673 14.0476 55.689 14.1907 55.969 14.3846C56.2522 14.5785 56.4753 14.8278 56.6384 15.1325C56.8015 15.4341 56.8831 15.7957 56.8831 16.2173V21H55.018V20.0167H54.9626C54.8488 20.2383 54.6964 20.4337 54.5056 20.603C54.3148 20.7692 54.0855 20.9 53.8177 20.9954C53.55 21.0877 53.2407 21.1339 52.8898 21.1339ZM53.453 19.7766C53.7423 19.7766 53.9978 19.7197 54.2194 19.6058C54.441 19.4889 54.6148 19.3319 54.741 19.1349C54.8672 18.938 54.9303 18.7148 54.9303 18.4656V17.7131C54.8688 17.7531 54.7841 17.79 54.6764 17.8239C54.5718 17.8546 54.4533 17.8839 54.3209 17.9116C54.1886 17.9362 54.0563 17.9593 53.9239 17.9808C53.7916 17.9993 53.6715 18.0162 53.5638 18.0316C53.333 18.0655 53.1314 18.1193 52.9591 18.1932C52.7867 18.267 52.6528 18.3671 52.5574 18.4933C52.462 18.6164 52.4143 18.7702 52.4143 18.9549C52.4143 19.2227 52.5113 19.4273 52.7052 19.5689C52.9021 19.7074 53.1514 19.7766 53.453 19.7766ZM61.6034 23.8068C60.9664 23.8068 60.4201 23.7191 59.9646 23.5437C59.5122 23.3713 59.1521 23.1359 58.8843 22.8374C58.6166 22.5388 58.4427 22.2034 58.3627 21.831L60.1816 21.5863C60.2369 21.7279 60.3247 21.8602 60.4447 21.9833C60.5647 22.1064 60.7232 22.2049 60.9202 22.2788C61.1202 22.3557 61.3634 22.3942 61.6496 22.3942C62.0774 22.3942 62.4298 22.2895 62.7068 22.0803C62.9868 21.8741 63.1269 21.5278 63.1269 21.0415V19.7443H63.0438C62.9576 19.9413 62.8283 20.1275 62.656 20.3029C62.4836 20.4783 62.262 20.6214 61.9912 20.7322C61.7204 20.843 61.3972 20.8984 61.0218 20.8984C60.4893 20.8984 60.0046 20.7753 59.5676 20.5291C59.1336 20.2798 58.7874 19.8997 58.5289 19.3888C58.2734 18.8749 58.1457 18.2255 58.1457 17.4407C58.1457 16.6374 58.2765 15.9665 58.5381 15.4279C58.7997 14.8893 59.1475 14.4862 59.5814 14.2184C60.0184 13.9506 60.497 13.8168 61.0171 13.8168C61.4142 13.8168 61.7465 13.8845 62.0143 14.0199C62.282 14.1522 62.4975 14.3184 62.6606 14.5185C62.8268 14.7154 62.9545 14.9093 63.0438 15.1001H63.1176V13.9091H65.0704V21.0692C65.0704 21.6725 64.9227 22.1772 64.6272 22.5835C64.3318 22.9897 63.9224 23.2944 63.3992 23.4975C62.8791 23.7037 62.2805 23.8068 61.6034 23.8068ZM61.645 19.4212C61.962 19.4212 62.2297 19.3427 62.4482 19.1857C62.6698 19.0257 62.8391 18.7979 62.9561 18.5025C63.0761 18.204 63.1361 17.8469 63.1361 17.4315C63.1361 17.016 63.0776 16.6559 62.9607 16.3512C62.8437 16.0434 62.6744 15.8049 62.4529 15.6357C62.2313 15.4664 61.962 15.3817 61.645 15.3817C61.3218 15.3817 61.0494 15.4695 60.8279 15.6449C60.6063 15.8172 60.4385 16.0573 60.3247 16.3651C60.2108 16.6728 60.1539 17.0283 60.1539 17.4315C60.1539 17.8408 60.2108 18.1947 60.3247 18.4933C60.4416 18.7887 60.6093 19.018 60.8279 19.1811C61.0494 19.3411 61.3218 19.4212 61.645 19.4212ZM66.6354 21V13.9091H68.542V15.1463H68.6159C68.7451 14.7062 68.9621 14.3738 69.2668 14.1491C69.5715 13.9214 69.9223 13.8075 70.3193 13.8075C70.4178 13.8075 70.524 13.8137 70.6379 13.826C70.7517 13.8383 70.8518 13.8552 70.9379 13.8768V15.6218C70.8456 15.5941 70.7179 15.5695 70.5548 15.5479C70.3917 15.5264 70.2424 15.5156 70.107 15.5156C69.8177 15.5156 69.5592 15.5787 69.3314 15.7049C69.1067 15.828 68.9282 16.0004 68.7959 16.2219C68.6666 16.4435 68.602 16.699 68.602 16.9883V21H66.6354ZM73.7736 21.1339C73.3212 21.1339 72.918 21.0554 72.5641 20.8984C72.2102 20.7384 71.9301 20.503 71.7239 20.1921C71.5208 19.8782 71.4192 19.4873 71.4192 19.0195C71.4192 18.6256 71.4915 18.2947 71.6362 18.027C71.7808 17.7592 71.9778 17.5438 72.2271 17.3807C72.4764 17.2176 72.7595 17.0945 73.0765 17.0114C73.3966 16.9283 73.7321 16.8698 74.0829 16.8359C74.4953 16.7929 74.8277 16.7528 75.0801 16.7159C75.3324 16.6759 75.5156 16.6174 75.6294 16.5405C75.7433 16.4635 75.8002 16.3497 75.8002 16.1989V16.1712C75.8002 15.8788 75.7079 15.6526 75.5233 15.4925C75.3417 15.3325 75.0832 15.2525 74.7477 15.2525C74.3938 15.2525 74.1122 15.331 73.9029 15.4879C73.6936 15.6418 73.5551 15.8357 73.4874 16.0696L71.6685 15.9219C71.7608 15.491 71.9424 15.1186 72.2132 14.8047C72.4841 14.4877 72.8334 14.2446 73.2612 14.0753C73.6921 13.9029 74.1906 13.8168 74.7569 13.8168C75.1509 13.8168 75.5279 13.8629 75.888 13.9553C76.2511 14.0476 76.5727 14.1907 76.8528 14.3846C77.1359 14.5785 77.3591 14.8278 77.5222 15.1325C77.6853 15.4341 77.7669 15.7957 77.7669 16.2173V21H75.9018V20.0167H75.8464C75.7325 20.2383 75.5802 20.4337 75.3894 20.603C75.1986 20.7692 74.9693 20.9 74.7015 20.9954C74.4338 21.0877 74.1245 21.1339 73.7736 21.1339ZM74.3368 19.7766C74.6261 19.7766 74.8816 19.7197 75.1032 19.6058C75.3248 19.4889 75.4986 19.3319 75.6248 19.1349C75.751 18.938 75.8141 18.7148 75.8141 18.4656V17.7131C75.7525 17.7531 75.6679 17.79 75.5602 17.8239C75.4556 17.8546 75.3371 17.8839 75.2047 17.9116C75.0724 17.9362 74.94 17.9593 74.8077 17.9808C74.6754 17.9993 74.5553 18.0162 74.4476 18.0316C74.2168 18.0655 74.0152 18.1193 73.8429 18.1932C73.6705 18.267 73.5366 18.3671 73.4412 18.4933C73.3458 18.6164 73.2981 18.7702 73.2981 18.9549C73.2981 19.2227 73.3951 19.4273 73.589 19.5689C73.7859 19.7074 74.0352 19.7766 74.3368 19.7766ZM79.2926 21V13.9091H81.1669V15.1602H81.25C81.3977 14.7447 81.6439 14.4169 81.9886 14.1768C82.3333 13.9368 82.7457 13.8168 83.2259 13.8168C83.7121 13.8168 84.1261 13.9383 84.4677 14.1815C84.8093 14.4215 85.0371 14.7478 85.1509 15.1602H85.2248C85.3694 14.7539 85.631 14.4292 86.0096 14.1861C86.3912 13.9399 86.8421 13.8168 87.3622 13.8168C88.0239 13.8168 88.561 14.0276 88.9734 14.4492C89.3888 14.8678 89.5966 15.4618 89.5966 16.2312V21H87.6346V16.619C87.6346 16.225 87.5299 15.9296 87.3207 15.7326C87.1114 15.5356 86.8498 15.4371 86.5359 15.4371C86.1789 15.4371 85.9003 15.551 85.7003 15.7788C85.5002 16.0034 85.4002 16.3004 85.4002 16.6697V21H83.4936V16.5774C83.4936 16.2296 83.3936 15.9527 83.1935 15.7464C82.9966 15.5402 82.7365 15.4371 82.4134 15.4371C82.1948 15.4371 81.9979 15.4925 81.8224 15.6033C81.6501 15.7111 81.5131 15.8634 81.4116 16.0604C81.31 16.2543 81.2592 16.482 81.2592 16.7436V21H79.2926Z" fill="white"/>
<path d="M13.5395 9C11.0394 9 9 11.0394 9 13.5395V19.4605C9 21.9603 11.0393 24 13.5395 24H19.4605C21.9604 24 24 21.9604 24 19.4605V13.5395C24 11.0393 21.9603 9 19.4605 9H13.5395ZM13.5395 10.1842H19.4605C21.3202 10.1842 22.8158 11.6794 22.8158 13.5395V19.4605C22.8158 21.3202 21.3202 22.8158 19.4605 22.8158H13.5395C11.6794 22.8158 10.1842 21.3202 10.1842 19.4605V13.5395C10.1842 11.6793 11.6793 10.1842 13.5395 10.1842ZM20.4474 11.7632C20.0112 11.7632 19.6579 12.1164 19.6579 12.5526C19.6579 12.9888 20.0112 13.3421 20.4474 13.3421C20.8836 13.3421 21.2368 12.9888 21.2368 12.5526C21.2368 12.1164 20.8836 11.7632 20.4474 11.7632ZM16.5 12.5526C14.327 12.5526 12.5526 14.327 12.5526 16.5C12.5526 18.673 14.327 20.4474 16.5 20.4474C18.673 20.4474 20.4474 18.673 20.4474 16.5C20.4474 14.327 18.673 12.5526 16.5 12.5526ZM16.5 13.7368C18.0328 13.7368 19.2632 14.9672 19.2632 16.5C19.2632 18.0328 18.0328 19.2632 16.5 19.2632C14.9672 19.2632 13.7368 18.0328 13.7368 16.5C13.7368 14.9672 14.9672 13.7368 16.5 13.7368Z" fill="white"/>
</svg>
